<svg xmlns="http://www.w3.org/2000/svg" width="26.565" height="23.615" viewBox="0 0 26.565 23.615">
  <path id="Icon_awesome-file-export" data-name="Icon awesome-file-export" d="M17.711,5.622a1.1,1.1,0,0,0-.323-.779L12.873.323A1.106,1.106,0,0,0,12.089,0h-.281V5.9h5.9Zm8.625,8.584L21.923,9.76a.74.74,0,0,0-1.264.521v3H17.707v2.952h2.952v3.007a.74.74,0,0,0,1.264.521l4.414-4.451A.785.785,0,0,0,26.337,14.206ZM8.856,15.5V14.022a.74.74,0,0,1,.738-.738h8.118V7.38H11.439a1.11,1.11,0,0,1-1.107-1.107V0H1.107A1.1,1.1,0,0,0,0,1.107v21.4a1.1,1.1,0,0,0,1.107,1.107H16.6a1.1,1.1,0,0,0,1.107-1.107V16.235H9.594A.74.74,0,0,1,8.856,15.5Z" fill="#38393c"/>
</svg>
